<svg version="1.0" xmlns="http://www.w3.org/2000/svg" viewBox="0 0 100 90.682"><path d="M8.769 18.373v43.646h-6.53A2.235 2.235 0 0 1 0 59.78V3.459C0 1.554 1.42 0 3.372 0h28.857c1.944 0 3.372 1.546 3.372 3.452V6.76h44.617a2.233 2.233 0 0 1 2.238 2.231v12.666H44.37v-3.315c0-1.901-1.42-3.451-3.379-3.451H12.147c-1.959-.001-3.378 1.57-3.378 3.482z"/><path d="M97.761 35.426H53.146v-3.308c0-1.905-1.429-3.452-3.381-3.452H20.914c-1.95 0-3.371 1.554-3.371 3.458V88.45c0 1.237.997 2.231 2.239 2.231H97.76a2.23 2.23 0 0 0 2.239-2.231V37.657a2.232 2.232 0 0 0-2.238-2.231z"/></svg>